HIERARCHY
ROOT Hips
{
	OFFSET 0.000000 0.000000 0.000000
	CHANNELS 6 Xposition Yposition Zposition Zrotation Yrotation Xrotation 
	JOINT LHipJoint
	{
		OFFSET 0.000000 0.000000 0.000000
		CHANNELS 3 Zrotation Yrotation Xrotation
		JOINT LeftUpLeg
		{
			OFFSET 1.363060 -1.794630 0.839290
			CHANNELS 3 Zrotation Yrotation Xrotation
			JOINT LeftLeg
			{
				OFFSET 2.448110 -6.726130 0.000000
				CHANNELS 3 Zrotation Yrotation Xrotation
				JOINT LeftFoot
				{
					OFFSET 2.562200 -7.039590 0.000000
					CHANNELS 3 Zrotation Yrotation Xrotation
					JOINT LeftToeBase
					{
						OFFSET 0.157640 -0.433110 2.322550
						CHANNELS 3 Zrotation Yrotation Xrotation
						End Site
						{
							OFFSET 0.000000 0.000000 0.000000
						}
					}
				}
			}
		}
	}
	JOINT RHipJoint
	{
		OFFSET 0.000000 0.000000 0.000000
		CHANNELS 3 Zrotation Yrotation Xrotation
		JOINT RightUpLeg
		{
			OFFSET -1.305520 -1.794630 0.839290
			CHANNELS 3 Zrotation Yrotation Xrotation
			JOINT RightLeg
			{
				OFFSET -2.542530 -6.985550 0.000000
				CHANNELS 3 Zrotation Yrotation Xrotation
				JOINT RightFoot
				{
					OFFSET -2.568260 -7.056230 0.000000
					CHANNELS 3 Zrotation Yrotation Xrotation
					JOINT RightToeBase
					{
						OFFSET -0.164730 -0.452590 2.363150
						CHANNELS 3 Zrotation Yrotation Xrotation
						End Site
						{
							OFFSET 0.000000 0.000000 0.000000
						}
					}
				}
			}
		}
	}
	JOINT LowerBack
	{
		OFFSET 0.000000 0.000000 0.000000
		CHANNELS 3 Zrotation Yrotation Xrotation
		JOINT Spine
		{
			OFFSET 0.028270 2.035590 -0.193380
			CHANNELS 3 Zrotation Yrotation Xrotation
			JOINT Spine1
			{
				OFFSET 0.056720 2.048850 -0.042750
				CHANNELS 3 Zrotation Yrotation Xrotation
				JOINT Neck
				{
					OFFSET 0.000000 0.000000 0.000000
					CHANNELS 3 Zrotation Yrotation Xrotation
					JOINT Neck1
					{
						OFFSET -0.054170 1.746240 0.172020
						CHANNELS 3 Zrotation Yrotation Xrotation
						JOINT Head
						{
							OFFSET 0.104070 1.761360 -0.123970
							CHANNELS 3 Zrotation Yrotation Xrotation
							End Site
							{
								OFFSET 0.000000 0.000000 0.000000
							}
						}
					}
				}
				JOINT LeftShoulder
				{
					OFFSET 0.000000 0.000000 0.000000
					CHANNELS 3 Zrotation Yrotation Xrotation
					JOINT LeftArm
					{
						OFFSET 3.362410 1.200890 -0.311210
						CHANNELS 3 Zrotation Yrotation Xrotation
						JOINT LeftForeArm
						{
							OFFSET 4.983000 -0.000000 -0.000000
							CHANNELS 3 Zrotation Yrotation Xrotation
							JOINT LeftHand
							{
								OFFSET 3.483560 -0.000000 -0.000000
								CHANNELS 3 Zrotation Yrotation Xrotation
								JOINT LeftFingerBase
								{
									OFFSET 0.000000 0.000000 0.000000
									CHANNELS 3 Zrotation Yrotation Xrotation
									JOINT LeftHandIndex1
									{
										OFFSET 0.715260 -0.000000 -0.000000
										CHANNELS 3 Zrotation Yrotation Xrotation
										End Site
										{
											OFFSET 0.000000 0.000000 0.000000
										}
									}
								}
								JOINT LThumb
								{
									OFFSET 0.000000 0.000000 0.000000
									CHANNELS 3 Zrotation Yrotation Xrotation
									End Site
									{
										OFFSET 0.000000 0.000000 0.000000
									}
								}
							}
						}
					}
				}
				JOINT RightShoulder
				{
					OFFSET 0.000000 0.000000 0.000000
					CHANNELS 3 Zrotation Yrotation Xrotation
					JOINT RightArm
					{
						OFFSET -3.136600 1.374050 -0.404650
						CHANNELS 3 Zrotation Yrotation Xrotation
						JOINT RightForeArm
						{
							OFFSET -5.241900 -0.000000 -0.000000
							CHANNELS 3 Zrotation Yrotation Xrotation
							JOINT RightHand
							{
								OFFSET -3.444170 -0.000000 -0.000000
								CHANNELS 3 Zrotation Yrotation Xrotation
								JOINT RightFingerBase
								{
									OFFSET 0.000000 0.000000 0.000000
									CHANNELS 3 Zrotation Yrotation Xrotation
									JOINT RightHandIndex1
									{
										OFFSET -0.622530 -0.000000 -0.000000
										CHANNELS 3 Zrotation Yrotation Xrotation
										End Site
										{
											OFFSET 0.000000 0.000000 0.000000
										}
									}
								}
								JOINT RThumb
								{
									OFFSET 0.000000 0.000000 0.000000
									CHANNELS 3 Zrotation Yrotation Xrotation
									End Site
									{
										OFFSET 0.000000 0.000000 0.000000
									}
								}
							}
						}
					}
				}
			}
		}
	}
}
MOTION
Frames: 4
Frame Time: 0.008333
0.515411 18.410978 9.920105 -10.642900 1.527416 11.229781 7.338808 4.610664 -2.048424 -20.752633 -42.288444 22.671262 -3.759260 -2.516116 -3.183950 -13.895450 43.267570 -27.400376 0.125900 2.287500 6.300900 -0.373595 -4.229417 -0.251236 26.540330 22.470874 -0.397033 3.172089 -2.456051 7.659482 6.245925 -20.763534 -2.125329 -0.002100 -0.295900 0.813100 -2.693653 1.873891 4.774474 22.303031 8.029753 -28.287909 -10.705658 -0.919747 -9.538385 -15.880271 -3.746275 -2.673067 18.016708 -8.054503 20.158890 3.598700 -2.606700 5.235300 -5.026633 -11.693258 1.459755 -47.829674 -51.071771 14.618386 132.818766 -45.363993 -101.749113 -0.725891 -1.700178 -19.491709 26.036711 -15.998720 -7.280000 -7.125000 0.000000 0.000000 -0.115900 13.950200 0.084500 7.547399 13.113396 1.914608 20.714576 37.552566 -2.480194 -138.734777 47.144547 -103.520390 -1.178630 0.685537 9.677858 -8.463645 -34.891689 4.194600 7.125000 0.000000 0.000000 31.965500 -62.855100 -14.630500 
0.513834 18.409611 9.920630 -10.674781 1.570560 11.115953 7.346580 4.618143 -2.033221 -20.579864 -42.000188 22.464373 -3.749837 -2.490484 -3.120261 -13.883181 43.143943 -26.934628 0.106200 2.101600 5.786400 -0.380751 -4.219686 -0.238650 26.609730 22.344781 -0.406710 3.157372 -2.510156 7.824555 6.214036 -20.662925 -2.164882 -0.002800 -0.339000 0.931500 -2.695892 1.812267 4.774333 22.416724 7.941888 -28.071706 -10.664306 -0.994603 -9.938174 -15.742536 -3.853807 -3.119184 17.380825 -8.230470 22.340932 3.480300 -2.566700 5.701000 -4.994738 -11.789119 1.115399 -46.567414 -51.420868 13.750358 131.433040 -46.392026 -100.675050 -0.771490 -1.674472 -18.951412 26.972908 -16.555621 -7.863400 -7.125000 0.000000 0.000000 0.477900 13.193000 -0.356200 7.462224 13.324705 1.950239 19.256481 37.986547 -3.639482 -137.560995 48.420966 -102.501104 -1.161325 0.715188 11.219355 -9.990256 -34.282968 5.019200 7.125000 0.000000 0.000000 29.740500 -62.755200 -13.443000 
0.512783 18.409611 9.920946 -10.642569 1.581753 11.057020 7.346069 4.625393 -2.021222 -20.487230 -41.781118 22.279620 -3.743324 -2.473380 -3.077679 -13.848493 43.015455 -26.608723 0.097400 2.012300 5.539600 -0.387310 -4.206732 -0.237358 26.595843 22.306701 -0.424293 3.146137 -2.554918 7.952368 6.210551 -20.642095 -2.189230 -0.001900 -0.283700 0.779400 -2.737630 1.729728 4.754320 22.478665 7.826874 -27.884479 -10.569864 -1.065517 -10.240870 -15.371605 -3.932449 -3.534224 16.475130 -8.277231 24.175999 3.282700 -2.516700 6.093600 -4.985150 -11.875791 0.799457 -45.315702 -51.638351 12.725236 130.548730 -47.165240 -99.922335 -0.807101 -1.638894 -19.010419 27.652233 -17.259687 -8.474800 -7.125000 0.000000 0.000000 0.872600 12.271100 -0.667300 7.376002 13.498223 2.001651 17.931999 38.462283 -4.773940 -136.584187 49.459816 -101.649591 -1.138882 0.743675 12.132092 -10.852337 -33.588159 5.433600 7.125000 0.000000 0.000000 28.120800 -62.400700 -12.412400 
0.512467 18.410347 9.921261 -10.588396 1.572642 11.054662 7.326573 4.626483 -2.021129 -20.464328 -41.688724 22.182435 -3.739689 -2.459563 -3.053084 -13.818419 42.936359 -26.462752 0.098400 2.023100 5.569400 -0.409992 -4.191978 -0.255085 26.561067 22.297404 -0.463577 3.138380 -2.590237 8.050079 6.204531 -20.614349 -2.225849 -0.001600 -0.255000 0.700700 -2.699498 1.652389 4.764017 22.339678 7.707399 -27.883816 -10.464620 -1.116744 -10.423576 -15.017428 -3.945385 -3.730034 15.799840 -8.275366 25.631306 3.130700 -2.461300 6.397100 -4.958817 -11.966739 0.526977 -44.067655 -51.755010 11.677315 130.065995 -47.758089 -99.416031 -0.864605 -1.572993 -19.312181 28.304751 -18.759170 -9.543700 -7.125000 0.000000 0.000000 1.152100 10.412300 -0.925100 7.337455 13.630834 2.078884 16.827365 38.879318 -5.834922 -135.887330 50.216428 -101.036528 -1.111432 0.772615 12.247945 -11.170477 -32.871732 5.529000 7.125000 0.000000 0.000000 27.075200 -61.889100 -11.585800 
